<svg width="25" height="20" viewBox="0 0 25 20" fill="none" xmlns="http://www.w3.org/2000/svg">
<path d="M23.7667 11.1537H1.03333C0.462931 11.1537 0 10.6368 0 9.99986C0 9.36294 0.462931 8.84602 1.03333 8.84602H23.7667C24.3371 8.84602 24.8 9.36294 24.8 9.99986C24.8 10.6368 24.3371 11.1537 23.7667 11.1537Z" fill="black"/>
<path d="M23.7667 2.3077H1.03333C0.462931 2.3077 0 1.79078 0 1.15385C0 0.516922 0.462931 0 1.03333 0H23.7667C24.3371 0 24.8 0.516922 24.8 1.15385C24.8 1.79078 24.3371 2.3077 23.7667 2.3077Z" fill="black"/>
<path d="M23.7667 20H1.03333C0.462931 20 0 19.4831 0 18.8461C0 18.2092 0.462931 17.6923 1.03333 17.6923H23.7667C24.3371 17.6923 24.8 18.2092 24.8 18.8461C24.8 19.4831 24.3371 20 23.7667 20Z" fill="black"/>
</svg>
