<svg width="150" height="100" viewBox="0 0 150 100" fill="none" xmlns="http://www.w3.org/2000/svg">
<mask id="path-1-inside-1_1_348" fill="white">
<path d="M147.894 49.5452L139.239 10.5928C137.847 4.35496 132.415 0.000292807 126.031 0.000292807C118.573 0.000292807 112.5 6.07029 112.5 13.5287V15.6251C112.5 17.3525 113.897 18.7502 115.625 18.7502C117.352 18.7502 118.75 17.3525 118.75 15.6251V13.5287C118.75 9.51559 122.015 6.25017 126.031 6.25017C129.467 6.25017 132.391 8.59684 133.136 11.9507L141.79 50.9002C142.865 55.7403 143.499 60.678 143.689 65.6247H143.434C141.84 49.8777 128.66 37.4999 112.5 37.4999C98.3703 37.4999 86.5388 46.9876 82.6878 59.882C80.7756 57.8661 78.2555 56.2498 74.9997 56.2498C71.744 56.2498 69.2238 57.8661 67.3116 59.882C63.4606 46.9876 51.6291 37.4999 37.4999 37.4999C21.3398 37.4999 8.16003 49.8777 6.5657 65.6247H6.31081C6.50007 60.678 7.13493 55.74 8.20895 50.9002L16.8638 11.9537C17.6085 8.59684 20.532 6.24988 23.9683 6.24988C27.9843 6.24988 31.2497 9.51529 31.2497 13.5284V15.6248C31.2497 17.3522 32.6474 18.7499 34.3748 18.7499C36.1021 18.7499 37.4999 17.3522 37.4999 15.6248V13.5284C37.4999 6.06999 31.4269 0 23.9683 0C17.5839 0 12.152 4.35496 10.7604 10.5958L2.10585 49.5452C0.708103 55.8502 0 62.3107 0 68.7498C0 70.4772 1.39775 71.8749 3.12509 71.8749H6.56599C8.16003 87.6219 21.3398 99.9998 37.5001 99.9998C54.4641 99.9998 68.2474 86.3912 68.6713 69.5277C69.2991 67.7804 71.7964 62.5 75 62.5C78.1213 62.5 80.5869 67.4863 81.3278 69.5183C81.7467 86.3862 95.5329 99.9998 112.5 99.9998C128.66 99.9998 141.84 87.6219 143.434 71.8749H146.875C148.602 71.8749 150 70.4772 150 68.7498C149.999 62.3107 149.291 55.8502 147.894 49.5452ZM37.4999 93.7496C23.7119 93.7496 12.5 82.5345 12.5 68.7498C12.5 54.9651 23.7122 43.75 37.4999 43.75C51.2875 43.75 62.4997 54.9651 62.4997 68.7498C62.4997 82.5345 51.2878 93.7496 37.4999 93.7496ZM112.5 93.7496C98.7116 93.7496 87.4997 82.5345 87.4997 68.7498C87.4997 54.9651 98.7119 43.75 112.5 43.75C126.287 43.75 137.499 54.9651 137.499 68.7498C137.499 82.5345 126.287 93.7496 112.5 93.7496Z"/>
<path d="M37.4999 49.9999C27.1604 49.9999 18.7499 58.4104 18.7499 68.7498C18.7499 70.4772 20.1477 71.8749 21.875 71.8749C23.6023 71.8749 25.0001 70.4772 25.0001 68.7498C25.0001 61.856 30.6093 56.2498 37.5001 56.2498C39.2275 56.2498 40.6252 54.852 40.6252 53.1247C40.6249 51.3976 39.2272 49.9999 37.4999 49.9999Z"/>
<path d="M112.5 49.9999C102.16 49.9999 93.7496 58.4104 93.7496 68.7498C93.7496 70.4772 95.1474 71.8749 96.8747 71.8749C98.6021 71.8749 99.9998 70.4772 99.9998 68.7498C99.9998 61.856 105.609 56.2498 112.5 56.2498C114.227 56.2498 115.625 54.852 115.625 53.1247C115.625 51.3976 114.227 49.9999 112.5 49.9999Z"/>
</mask>
<path d="M147.894 49.5452L139.239 10.5928C137.847 4.35496 132.415 0.000292807 126.031 0.000292807C118.573 0.000292807 112.5 6.07029 112.5 13.5287V15.6251C112.5 17.3525 113.897 18.7502 115.625 18.7502C117.352 18.7502 118.75 17.3525 118.75 15.6251V13.5287C118.75 9.51559 122.015 6.25017 126.031 6.25017C129.467 6.25017 132.391 8.59684 133.136 11.9507L141.79 50.9002C142.865 55.7403 143.499 60.678 143.689 65.6247H143.434C141.84 49.8777 128.66 37.4999 112.5 37.4999C98.3703 37.4999 86.5388 46.9876 82.6878 59.882C80.7756 57.8661 78.2555 56.2498 74.9997 56.2498C71.744 56.2498 69.2238 57.8661 67.3116 59.882C63.4606 46.9876 51.6291 37.4999 37.4999 37.4999C21.3398 37.4999 8.16003 49.8777 6.5657 65.6247H6.31081C6.50007 60.678 7.13493 55.74 8.20895 50.9002L16.8638 11.9537C17.6085 8.59684 20.532 6.24988 23.9683 6.24988C27.9843 6.24988 31.2497 9.51529 31.2497 13.5284V15.6248C31.2497 17.3522 32.6474 18.7499 34.3748 18.7499C36.1021 18.7499 37.4999 17.3522 37.4999 15.6248V13.5284C37.4999 6.06999 31.4269 0 23.9683 0C17.5839 0 12.152 4.35496 10.7604 10.5958L2.10585 49.5452C0.708103 55.8502 0 62.3107 0 68.7498C0 70.4772 1.39775 71.8749 3.12509 71.8749H6.56599C8.16003 87.6219 21.3398 99.9998 37.5001 99.9998C54.4641 99.9998 68.2474 86.3912 68.6713 69.5277C69.2991 67.7804 71.7964 62.5 75 62.5C78.1213 62.5 80.5869 67.4863 81.3278 69.5183C81.7467 86.3862 95.5329 99.9998 112.5 99.9998C128.66 99.9998 141.84 87.6219 143.434 71.8749H146.875C148.602 71.8749 150 70.4772 150 68.7498C149.999 62.3107 149.291 55.8502 147.894 49.5452ZM37.4999 93.7496C23.7119 93.7496 12.5 82.5345 12.5 68.7498C12.5 54.9651 23.7122 43.75 37.4999 43.75C51.2875 43.75 62.4997 54.9651 62.4997 68.7498C62.4997 82.5345 51.2878 93.7496 37.4999 93.7496ZM112.5 93.7496C98.7116 93.7496 87.4997 82.5345 87.4997 68.7498C87.4997 54.9651 98.7119 43.75 112.5 43.75C126.287 43.75 137.499 54.9651 137.499 68.7498C137.499 82.5345 126.287 93.7496 112.5 93.7496Z" fill="#FFA800"/>
<path d="M37.4999 49.9999C27.1604 49.9999 18.7499 58.4104 18.7499 68.7498C18.7499 70.4772 20.1477 71.8749 21.875 71.8749C23.6023 71.8749 25.0001 70.4772 25.0001 68.7498C25.0001 61.856 30.6093 56.2498 37.5001 56.2498C39.2275 56.2498 40.6252 54.852 40.6252 53.1247C40.6249 51.3976 39.2272 49.9999 37.4999 49.9999Z" fill="#FFA800"/>
<path d="M112.5 49.9999C102.16 49.9999 93.7496 58.4104 93.7496 68.7498C93.7496 70.4772 95.1474 71.8749 96.8747 71.8749C98.6021 71.8749 99.9998 70.4772 99.9998 68.7498C99.9998 61.856 105.609 56.2498 112.5 56.2498C114.227 56.2498 115.625 54.852 115.625 53.1247C115.625 51.3976 114.227 49.9999 112.5 49.9999Z" fill="#FFA800"/>
<path d="M147.894 49.5452L139.239 10.5928C137.847 4.35496 132.415 0.000292807 126.031 0.000292807C118.573 0.000292807 112.5 6.07029 112.5 13.5287V15.6251C112.5 17.3525 113.897 18.7502 115.625 18.7502C117.352 18.7502 118.75 17.3525 118.75 15.6251V13.5287C118.75 9.51559 122.015 6.25017 126.031 6.25017C129.467 6.25017 132.391 8.59684 133.136 11.9507L141.79 50.9002C142.865 55.7403 143.499 60.678 143.689 65.6247H143.434C141.84 49.8777 128.66 37.4999 112.5 37.4999C98.3703 37.4999 86.5388 46.9876 82.6878 59.882C80.7756 57.8661 78.2555 56.2498 74.9997 56.2498C71.744 56.2498 69.2238 57.8661 67.3116 59.882C63.4606 46.9876 51.6291 37.4999 37.4999 37.4999C21.3398 37.4999 8.16003 49.8777 6.5657 65.6247H6.31081C6.50007 60.678 7.13493 55.74 8.20895 50.9002L16.8638 11.9537C17.6085 8.59684 20.532 6.24988 23.9683 6.24988C27.9843 6.24988 31.2497 9.51529 31.2497 13.5284V15.6248C31.2497 17.3522 32.6474 18.7499 34.3748 18.7499C36.1021 18.7499 37.4999 17.3522 37.4999 15.6248V13.5284C37.4999 6.06999 31.4269 0 23.9683 0C17.5839 0 12.152 4.35496 10.7604 10.5958L2.10585 49.5452C0.708103 55.8502 0 62.3107 0 68.7498C0 70.4772 1.39775 71.8749 3.12509 71.8749H6.56599C8.16003 87.6219 21.3398 99.9998 37.5001 99.9998C54.4641 99.9998 68.2474 86.3912 68.6713 69.5277C69.2991 67.7804 71.7964 62.5 75 62.5C78.1213 62.5 80.5869 67.4863 81.3278 69.5183C81.7467 86.3862 95.5329 99.9998 112.5 99.9998C128.66 99.9998 141.84 87.6219 143.434 71.8749H146.875C148.602 71.8749 150 70.4772 150 68.7498C149.999 62.3107 149.291 55.8502 147.894 49.5452ZM37.4999 93.7496C23.7119 93.7496 12.5 82.5345 12.5 68.7498C12.5 54.9651 23.7122 43.75 37.4999 43.75C51.2875 43.75 62.4997 54.9651 62.4997 68.7498C62.4997 82.5345 51.2878 93.7496 37.4999 93.7496ZM112.5 93.7496C98.7116 93.7496 87.4997 82.5345 87.4997 68.7498C87.4997 54.9651 98.7119 43.75 112.5 43.75C126.287 43.75 137.499 54.9651 137.499 68.7498C137.499 82.5345 126.287 93.7496 112.5 93.7496Z" stroke="white" mask="url(#path-1-inside-1_1_348)"/>
<path d="M37.4999 49.9999C27.1604 49.9999 18.7499 58.4104 18.7499 68.7498C18.7499 70.4772 20.1477 71.8749 21.875 71.8749C23.6023 71.8749 25.0001 70.4772 25.0001 68.7498C25.0001 61.856 30.6093 56.2498 37.5001 56.2498C39.2275 56.2498 40.6252 54.852 40.6252 53.1247C40.6249 51.3976 39.2272 49.9999 37.4999 49.9999Z" stroke="white" mask="url(#path-1-inside-1_1_348)"/>
<path d="M112.5 49.9999C102.16 49.9999 93.7496 58.4104 93.7496 68.7498C93.7496 70.4772 95.1474 71.8749 96.8747 71.8749C98.6021 71.8749 99.9998 70.4772 99.9998 68.7498C99.9998 61.856 105.609 56.2498 112.5 56.2498C114.227 56.2498 115.625 54.852 115.625 53.1247C115.625 51.3976 114.227 49.9999 112.5 49.9999Z" stroke="white" mask="url(#path-1-inside-1_1_348)"/>
</svg>
