<svg width="150" height="131" viewBox="0 0 150 131" fill="none" xmlns="http://www.w3.org/2000/svg">
<path d="M40.3796 8.57461C41.5934 8.57461 42.5769 7.59082 42.5769 6.37735V2.19727C42.5769 0.983789 41.5934 0 40.3796 0C39.1659 0 38.1824 0.983789 38.1824 2.19727V6.37705C38.1824 7.59082 39.1661 8.57461 40.3796 8.57461Z" fill="#FFA800"/>
<path d="M38.1824 40.633V44.8128C38.1824 46.0263 39.1659 47.0101 40.3796 47.0101C41.5934 47.0101 42.5769 46.0263 42.5769 44.8128V40.633C42.5769 39.4195 41.5934 38.4357 40.3796 38.4357C39.1659 38.4357 38.1824 39.4195 38.1824 40.633Z" fill="#FFA800"/>
<path d="M26.7146 12.9475C27.5718 13.8053 28.9632 13.8059 29.8221 12.9475C30.6802 12.0894 30.6802 10.698 29.8218 9.83994L26.8661 6.88448C26.0083 6.02608 24.617 6.02637 23.7586 6.88448C22.9005 7.74258 22.9005 9.13389 23.7589 9.99199L26.7146 12.9475Z" fill="#FFA800"/>
<path d="M54.0451 34.0626C53.1867 33.2045 51.7957 33.2045 50.9373 34.0626C50.0792 34.9207 50.0792 36.312 50.9373 37.1701L53.893 40.1259C54.7514 40.984 56.1424 40.984 57.0008 40.1259C57.8592 39.2678 57.8589 37.8764 57.0008 37.0183L54.0451 34.0626Z" fill="#FFA800"/>
<path d="M19.0721 25.7025H23.2522C24.4659 25.7025 25.4494 24.7187 25.4494 23.5052C25.4494 22.2917 24.4659 21.3079 23.2522 21.3079H19.0721C17.8583 21.3079 16.8748 22.2917 16.8748 23.5052C16.8748 24.7187 17.8583 25.7025 19.0721 25.7025Z" fill="#FFA800"/>
<path d="M55.3103 23.5052C55.3103 24.7187 56.2938 25.7025 57.5075 25.7025H61.6876C62.9014 25.7025 63.8849 24.7187 63.8849 23.5052C63.8849 22.2917 62.9014 21.3079 61.6876 21.3079H57.5075C56.2941 21.3079 55.3103 22.2917 55.3103 23.5052Z" fill="#FFA800"/>
<path d="M26.7144 34.0626L23.7586 37.0183C22.3696 38.4073 23.373 40.7695 25.3125 40.7695C25.8747 40.7695 26.4372 40.5551 26.8664 40.1259L29.8222 37.1701C30.6803 36.312 30.6803 34.9207 29.8222 34.0626C28.9638 33.2045 27.5728 33.2045 26.7144 34.0626Z" fill="#FFA800"/>
<path d="M54.0448 12.9475L57.0005 9.992C57.8589 9.13389 57.8589 7.74288 57.0008 6.88448C56.1427 6.02637 54.7514 6.02608 53.8933 6.88448L50.9373 9.83995C50.0789 10.6981 50.0789 12.0891 50.937 12.9475C51.7951 13.8056 53.187 13.8059 54.0448 12.9475Z" fill="#FFA800"/>
<path d="M149.994 123.244C149.832 119.21 146.072 115.924 141.86 116.614C140.168 113.379 147.562 128.135 117.186 67.3822L106.774 46.558C104.707 42.4251 98.8119 42.4388 96.7526 46.558C95.8192 48.4251 89.729 60.6055 88.4666 63.1295L76.0072 38.2107C74.1322 34.459 68.7724 34.459 66.8968 38.2107L56.683 58.6385C56.2509 59.5025 55.014 59.509 54.5789 58.6385C52.703 54.8871 47.3437 54.8874 45.4682 58.6385L28.9471 91.6822L28.4994 90.7866C27.1145 88.0172 23.1829 88.0456 21.8124 90.7866C21.8124 90.7863 21.8124 90.7869 21.8124 90.7866L4.13408 126.142H2.19727C0.983496 126.142 0 127.126 0 128.34C0 129.553 0.983496 130.537 2.19727 130.537C4.57002 130.537 110.497 130.537 112.863 130.537C114.076 130.537 115.06 129.553 115.06 128.34C115.06 127.126 114.076 126.142 112.863 126.142H88.5223C87.5405 126.142 86.7513 125.341 86.7644 124.359C86.7782 123.396 87.6718 122.517 88.7153 122.638C90.3894 122.832 91.8914 121.731 92.2066 120.076C92.5816 118.115 94.3046 116.693 96.3012 116.693C97.7701 116.693 99.1708 117.482 99.9249 118.806C100.648 120.076 102.12 120.724 103.508 120.419C103.828 120.349 104.563 120.025 105.574 120.351C108.144 121.18 108.634 118.87 111.112 119.362C112.838 119.706 114.498 118.536 114.729 116.806C115.182 113.422 118.099 110.87 121.515 110.87C123.981 110.87 126.269 112.211 127.483 114.368C128.188 115.621 129.531 116.339 130.901 116.278C131.217 116.264 131.534 116.209 131.845 116.109C134.453 115.272 137.162 116.658 138.159 119.065C138.826 120.675 140.591 121.516 142.265 121.022C143.914 120.534 145.538 121.794 145.603 123.42C145.663 124.917 144.472 126.142 142.992 126.142H123.117C121.904 126.142 120.92 127.126 120.92 128.34C120.92 129.553 121.904 130.537 123.117 130.537H142.992C146.97 130.537 150.154 127.24 149.994 123.244ZM100.683 48.5229C101.13 47.6314 102.399 47.6349 102.843 48.5229C103.69 50.218 110.095 63.0272 112.554 67.9465L104.81 75.8595C104.622 76.0508 104.317 76.0637 104.114 75.8894L99.4207 71.8506C97.3251 70.0468 94.1563 70.3298 92.4135 72.479L89.8972 75.583C89.7132 75.8103 89.3751 75.8373 89.1568 75.6357L87.769 74.3519C96.4796 56.9308 96.2549 57.3802 100.683 48.5229ZM25.1555 93.9263L31.1531 105.922L27.963 109.181L24.4459 106.155C22.8776 104.805 20.6751 104.824 19.154 105.928L25.1555 93.9263ZM9.04775 126.142L15.4664 113.305C18.6155 114.093 20.0268 111.599 21.6741 109.567L25.1827 112.586C26.8878 114.054 29.4542 113.941 31.0251 112.336L33.2326 110.081L41.2638 126.142H9.04775ZM56.9604 126.142H46.1771L31.4036 96.5953L49.3995 60.6041C49.6582 60.087 50.39 60.0867 50.6487 60.6044C52.7024 64.7118 58.5624 64.7074 60.6143 60.6044L70.8281 40.1759C71.0868 39.6589 71.8184 39.6589 72.077 40.1759L86.0106 68.0428C84.7655 70.5319 59.3625 121.339 56.9604 126.142ZM133.161 111.473C132.446 111.492 131.739 111.59 131.048 111.767C128.994 108.48 125.382 106.475 121.515 106.475C116.359 106.475 111.895 110.016 110.631 114.906C109.185 114.873 107.728 115.243 106.431 116.028C105.413 115.777 104.339 115.747 103.306 115.942C101.713 113.677 99.0967 112.298 96.3015 112.298C92.5488 112.298 89.2702 114.743 88.1476 118.243C84.9902 118.435 82.4165 121.049 82.3705 124.296C82.362 124.899 82.459 125.578 82.623 126.142H61.8744L85.7226 78.445L86.1732 78.8619C88.2504 80.7832 91.5287 80.5494 93.3117 78.3504L95.828 75.2466C96.0099 75.0225 96.3369 74.9941 96.5549 75.1813L101.249 79.2205C103.204 80.9021 106.148 80.7759 107.951 78.9334L114.634 72.1049L134.339 111.515C133.953 111.477 133.553 111.463 133.161 111.473Z" fill="#FFA800"/>
<path d="M40.3796 36.6519C45.2549 36.6519 49.7057 33.9738 51.9952 29.6634C52.5642 28.5917 52.157 27.2613 51.0853 26.6918C50.0136 26.1223 48.6835 26.5301 48.1137 27.6015C46.5888 30.4732 43.6251 32.2567 40.3796 32.2567C35.5538 32.2567 31.6278 28.3307 31.6278 23.5049C31.6278 18.6791 35.5538 14.753 40.3796 14.753C43.6251 14.753 46.5885 16.5366 48.1137 19.4083C48.6826 20.4797 50.013 20.8875 51.0853 20.318C52.157 19.7487 52.5645 18.4187 51.9952 17.3464C49.706 13.0357 45.2549 10.3579 40.3796 10.3579C33.1307 10.3579 27.2329 16.2554 27.2329 23.5046C27.2329 30.7538 33.1307 36.6519 40.3796 36.6519Z" fill="#FFA800"/>
</svg>
